# xmcd
#
# Track frame offsets: 
#        182
#        9307
#        20932
#        33245
#        46005
#        59727
#        69700
#        79082
#        92660
#        109500
#        125135
#        138105
#
# Disc length: 1985 seconds
#
# Revision: 11
# Processed by: cddbd v1.5.2PL0 Copyright (c) Steve Scherf et al.
# Submitted via: ExactAudioCopyFreeDBPlugin 1.0
#
DISCID=9d07bf0c
DTITLE=Patsy Cline - 12 Greatest Hits
DYEAR=1988
DGENRE=Country
TTITLE0=Walkin' After Midnight
TTITLE1=Sweet Dreams (of You)
TTITLE2=Crazy
TTITLE3=I Fall To Pieces
TTITLE4=So Wrong
TTITLE5=Strange
TTITLE6=Back In Baby's Arms
TTITLE7=She's Got You
TTITLE8=Faded Love
TTITLE9=Why Can't He Be You
TTITLE10=You're Stronger Than Me
TTITLE11=Leavin' On Your Mind
EXTD=LABEL =MCA Records, Inc.\nID =MCAD-12\nUPC =076732-0012-26\nCO
EXTD=PYRIGHT=1988
EXTT0=
EXTT1=
EXTT2=
EXTT3=
EXTT4=
EXTT5=
EXTT6=
EXTT7=
EXTT8=
EXTT9=
EXTT10=
EXTT11=
PLAYORDER=
